<mxfile host="app.diagrams.net" modified="2024-03-28T12:23:30.071Z" agent="Mozilla/5.0 (Windows NT 10.0; Win64; x64) AppleWebKit/537.36 (KHTML, like Gecko) Chrome/122.0.0.0 Safari/537.36 Edg/122.0.0.0" etag="Z2ozbBuy0UQpqp6m3rXx" version="24.0.6" type="github">
  <diagram name="第 1 页" id="zxckA9vdpsWLHhadAp5n">
    <mxGraphModel dx="3817" dy="713" grid="1" gridSize="10" guides="1" tooltips="1" connect="1" arrows="1" fold="1" page="1" pageScale="1" pageWidth="827" pageHeight="1169" math="0" shadow="0">
      <root>
        <mxCell id="0" />
        <mxCell id="1" parent="0" />
        <mxCell id="RGGxchZKjDvCBlOKZOAH-1" value="&lt;font style=&quot;font-size: 25px;&quot;&gt;創建帳號&lt;/font&gt;" style="ellipse;whiteSpace=wrap;html=1;" vertex="1" parent="1">
          <mxGeometry x="-440" y="40" width="120" height="80" as="geometry" />
        </mxCell>
        <mxCell id="RGGxchZKjDvCBlOKZOAH-2" value="" style="endArrow=classic;html=1;rounded=0;exitX=0.5;exitY=1;exitDx=0;exitDy=0;entryX=0.5;entryY=0;entryDx=0;entryDy=0;" edge="1" parent="1" source="RGGxchZKjDvCBlOKZOAH-1" target="RGGxchZKjDvCBlOKZOAH-4">
          <mxGeometry width="50" height="50" relative="1" as="geometry">
            <mxPoint x="-640" y="180" as="sourcePoint" />
            <mxPoint x="-680" y="200" as="targetPoint" />
          </mxGeometry>
        </mxCell>
        <mxCell id="RGGxchZKjDvCBlOKZOAH-4" value="&lt;font style=&quot;font-size: 25px;&quot;&gt;搜尋pagame&lt;/font&gt;" style="rounded=0;whiteSpace=wrap;html=1;" vertex="1" parent="1">
          <mxGeometry x="-480" y="180" width="200" height="60" as="geometry" />
        </mxCell>
        <mxCell id="RGGxchZKjDvCBlOKZOAH-7" value="&lt;font style=&quot;font-size: 25px;&quot;&gt;選擇Google帳號&lt;/font&gt;" style="rounded=0;whiteSpace=wrap;html=1;" vertex="1" parent="1">
          <mxGeometry x="-623" y="600" width="210" height="60" as="geometry" />
        </mxCell>
        <mxCell id="RGGxchZKjDvCBlOKZOAH-11" value="&lt;font style=&quot;font-size: 25px;&quot;&gt;建立帳號&lt;/font&gt;" style="rounded=0;whiteSpace=wrap;html=1;" vertex="1" parent="1">
          <mxGeometry x="-340" y="600" width="190" height="60" as="geometry" />
        </mxCell>
        <mxCell id="RGGxchZKjDvCBlOKZOAH-12" value="Text" style="text;html=1;align=center;verticalAlign=middle;resizable=0;points=[];autosize=1;strokeColor=none;fillColor=none;" vertex="1" parent="1">
          <mxGeometry x="-1780" y="360" width="50" height="30" as="geometry" />
        </mxCell>
        <mxCell id="RGGxchZKjDvCBlOKZOAH-13" value="&lt;font style=&quot;font-size: 25px;&quot;&gt;登入或註冊&lt;/font&gt;" style="rhombus;whiteSpace=wrap;html=1;" vertex="1" parent="1">
          <mxGeometry x="-490" y="300" width="210" height="100" as="geometry" />
        </mxCell>
        <mxCell id="RGGxchZKjDvCBlOKZOAH-14" value="" style="endArrow=classic;html=1;rounded=0;exitX=0.5;exitY=1;exitDx=0;exitDy=0;entryX=0.5;entryY=0;entryDx=0;entryDy=0;" edge="1" parent="1" source="RGGxchZKjDvCBlOKZOAH-4" target="RGGxchZKjDvCBlOKZOAH-13">
          <mxGeometry width="50" height="50" relative="1" as="geometry">
            <mxPoint x="-420" y="420" as="sourcePoint" />
            <mxPoint x="-380" y="300" as="targetPoint" />
          </mxGeometry>
        </mxCell>
        <mxCell id="RGGxchZKjDvCBlOKZOAH-15" value="&lt;font style=&quot;font-size: 25px;&quot;&gt;登入&lt;/font&gt;" style="rounded=0;whiteSpace=wrap;html=1;" vertex="1" parent="1">
          <mxGeometry x="-550" y="460" width="120" height="60" as="geometry" />
        </mxCell>
        <mxCell id="RGGxchZKjDvCBlOKZOAH-17" value="" style="endArrow=classic;html=1;rounded=0;entryX=0.5;entryY=0;entryDx=0;entryDy=0;" edge="1" parent="1" source="RGGxchZKjDvCBlOKZOAH-13" target="RGGxchZKjDvCBlOKZOAH-15">
          <mxGeometry width="50" height="50" relative="1" as="geometry">
            <mxPoint x="-420" y="490" as="sourcePoint" />
            <mxPoint x="-370" y="440" as="targetPoint" />
            <Array as="points">
              <mxPoint x="-440" y="410" />
            </Array>
          </mxGeometry>
        </mxCell>
        <mxCell id="RGGxchZKjDvCBlOKZOAH-19" value="" style="endArrow=classic;html=1;rounded=0;entryX=0.5;entryY=0;entryDx=0;entryDy=0;" edge="1" parent="1" source="RGGxchZKjDvCBlOKZOAH-13" target="RGGxchZKjDvCBlOKZOAH-21">
          <mxGeometry width="50" height="50" relative="1" as="geometry">
            <mxPoint x="-420" y="490" as="sourcePoint" />
            <mxPoint x="-220" y="440" as="targetPoint" />
          </mxGeometry>
        </mxCell>
        <mxCell id="RGGxchZKjDvCBlOKZOAH-21" value="&lt;font style=&quot;font-size: 25px;&quot;&gt;註冊&lt;/font&gt;" style="rounded=0;whiteSpace=wrap;html=1;" vertex="1" parent="1">
          <mxGeometry x="-320" y="460" width="120" height="60" as="geometry" />
        </mxCell>
        <mxCell id="RGGxchZKjDvCBlOKZOAH-22" value="" style="endArrow=classic;html=1;rounded=0;entryX=0.5;entryY=0;entryDx=0;entryDy=0;exitX=0.5;exitY=1;exitDx=0;exitDy=0;" edge="1" parent="1" source="RGGxchZKjDvCBlOKZOAH-15" target="RGGxchZKjDvCBlOKZOAH-7">
          <mxGeometry width="50" height="50" relative="1" as="geometry">
            <mxPoint x="-580" y="470" as="sourcePoint" />
            <mxPoint x="-530" y="420" as="targetPoint" />
          </mxGeometry>
        </mxCell>
        <mxCell id="RGGxchZKjDvCBlOKZOAH-24" value="" style="endArrow=classic;html=1;rounded=0;exitX=0.5;exitY=1;exitDx=0;exitDy=0;entryX=0.5;entryY=0;entryDx=0;entryDy=0;" edge="1" parent="1" source="RGGxchZKjDvCBlOKZOAH-7" target="RGGxchZKjDvCBlOKZOAH-27">
          <mxGeometry width="50" height="50" relative="1" as="geometry">
            <mxPoint x="-520" y="670" as="sourcePoint" />
            <mxPoint x="-540" y="770" as="targetPoint" />
          </mxGeometry>
        </mxCell>
        <mxCell id="RGGxchZKjDvCBlOKZOAH-27" value="&lt;font style=&quot;font-size: 25px;&quot;&gt;開始遊玩&lt;/font&gt;" style="ellipse;whiteSpace=wrap;html=1;" vertex="1" parent="1">
          <mxGeometry x="-650" y="760" width="150" height="80" as="geometry" />
        </mxCell>
        <mxCell id="RGGxchZKjDvCBlOKZOAH-28" style="edgeStyle=orthogonalEdgeStyle;rounded=0;orthogonalLoop=1;jettySize=auto;html=1;exitX=0.5;exitY=1;exitDx=0;exitDy=0;" edge="1" parent="1" source="RGGxchZKjDvCBlOKZOAH-27" target="RGGxchZKjDvCBlOKZOAH-27">
          <mxGeometry relative="1" as="geometry" />
        </mxCell>
        <mxCell id="RGGxchZKjDvCBlOKZOAH-30" value="" style="endArrow=classic;html=1;rounded=0;exitX=0.422;exitY=1.033;exitDx=0;exitDy=0;exitPerimeter=0;entryX=0.5;entryY=0;entryDx=0;entryDy=0;" edge="1" parent="1" source="RGGxchZKjDvCBlOKZOAH-21" target="RGGxchZKjDvCBlOKZOAH-11">
          <mxGeometry width="50" height="50" relative="1" as="geometry">
            <mxPoint x="-460" y="710" as="sourcePoint" />
            <mxPoint x="-390" y="770" as="targetPoint" />
          </mxGeometry>
        </mxCell>
        <mxCell id="RGGxchZKjDvCBlOKZOAH-32" value="" style="endArrow=classic;html=1;rounded=0;exitX=0.5;exitY=1;exitDx=0;exitDy=0;entryX=0.5;entryY=0;entryDx=0;entryDy=0;" edge="1" parent="1" source="RGGxchZKjDvCBlOKZOAH-11" target="RGGxchZKjDvCBlOKZOAH-35">
          <mxGeometry width="50" height="50" relative="1" as="geometry">
            <mxPoint x="-460" y="710" as="sourcePoint" />
            <mxPoint x="-230" y="710" as="targetPoint" />
          </mxGeometry>
        </mxCell>
        <mxCell id="RGGxchZKjDvCBlOKZOAH-35" value="&lt;span style=&quot;font-size: 25px;&quot;&gt;選擇年齡&lt;/span&gt;" style="rhombus;whiteSpace=wrap;html=1;" vertex="1" parent="1">
          <mxGeometry x="-310" y="750" width="160" height="80" as="geometry" />
        </mxCell>
        <mxCell id="RGGxchZKjDvCBlOKZOAH-37" value="" style="endArrow=classic;html=1;rounded=0;entryX=0.5;entryY=0;entryDx=0;entryDy=0;" edge="1" parent="1" source="RGGxchZKjDvCBlOKZOAH-35" target="RGGxchZKjDvCBlOKZOAH-39">
          <mxGeometry width="50" height="50" relative="1" as="geometry">
            <mxPoint x="-160" y="840" as="sourcePoint" />
            <mxPoint x="-150" y="900" as="targetPoint" />
          </mxGeometry>
        </mxCell>
        <mxCell id="RGGxchZKjDvCBlOKZOAH-39" value="&lt;span style=&quot;font-size: 25px;&quot;&gt;未達到年齡&lt;/span&gt;" style="rounded=0;whiteSpace=wrap;html=1;" vertex="1" parent="1">
          <mxGeometry x="-210" y="880" width="160" height="60" as="geometry" />
        </mxCell>
        <mxCell id="RGGxchZKjDvCBlOKZOAH-44" value="&lt;font style=&quot;font-size: 25px;&quot;&gt;達到年齡&lt;/font&gt;" style="rounded=0;whiteSpace=wrap;html=1;" vertex="1" parent="1">
          <mxGeometry x="-390" y="880" width="120" height="60" as="geometry" />
        </mxCell>
        <mxCell id="RGGxchZKjDvCBlOKZOAH-46" value="" style="endArrow=classic;html=1;rounded=0;entryX=0.5;entryY=0;entryDx=0;entryDy=0;" edge="1" parent="1" source="RGGxchZKjDvCBlOKZOAH-35" target="RGGxchZKjDvCBlOKZOAH-44">
          <mxGeometry width="50" height="50" relative="1" as="geometry">
            <mxPoint x="-370" y="870" as="sourcePoint" />
            <mxPoint x="-320" y="820" as="targetPoint" />
          </mxGeometry>
        </mxCell>
        <mxCell id="RGGxchZKjDvCBlOKZOAH-47" value="" style="endArrow=classic;html=1;rounded=0;exitX=0.5;exitY=1;exitDx=0;exitDy=0;" edge="1" parent="1" source="RGGxchZKjDvCBlOKZOAH-44">
          <mxGeometry width="50" height="50" relative="1" as="geometry">
            <mxPoint x="-370" y="870" as="sourcePoint" />
            <mxPoint x="-350" y="1020" as="targetPoint" />
          </mxGeometry>
        </mxCell>
        <mxCell id="RGGxchZKjDvCBlOKZOAH-48" value="&lt;font style=&quot;font-size: 25px;&quot;&gt;開始遊戲&lt;/font&gt;" style="ellipse;whiteSpace=wrap;html=1;" vertex="1" parent="1">
          <mxGeometry x="-410" y="1020" width="120" height="80" as="geometry" />
        </mxCell>
        <mxCell id="RGGxchZKjDvCBlOKZOAH-49" value="" style="endArrow=classic;html=1;rounded=0;exitX=0.5;exitY=1;exitDx=0;exitDy=0;" edge="1" parent="1" source="RGGxchZKjDvCBlOKZOAH-39">
          <mxGeometry width="50" height="50" relative="1" as="geometry">
            <mxPoint x="-120" y="960" as="sourcePoint" />
            <mxPoint x="-110" y="1030" as="targetPoint" />
          </mxGeometry>
        </mxCell>
        <mxCell id="RGGxchZKjDvCBlOKZOAH-51" value="&lt;font style=&quot;font-size: 25px;&quot;&gt;放棄&lt;/font&gt;" style="ellipse;whiteSpace=wrap;html=1;" vertex="1" parent="1">
          <mxGeometry x="-170" y="1030" width="120" height="80" as="geometry" />
        </mxCell>
        <mxCell id="RGGxchZKjDvCBlOKZOAH-52" value="" style="endArrow=classic;html=1;rounded=0;entryX=1;entryY=0.5;entryDx=0;entryDy=0;" edge="1" parent="1" target="RGGxchZKjDvCBlOKZOAH-35">
          <mxGeometry width="50" height="50" relative="1" as="geometry">
            <mxPoint x="-100" y="940" as="sourcePoint" />
            <mxPoint x="240" y="950" as="targetPoint" />
            <Array as="points">
              <mxPoint x="-20" y="1030" />
              <mxPoint x="-20" y="850" />
            </Array>
          </mxGeometry>
        </mxCell>
      </root>
    </mxGraphModel>
  </diagram>
</mxfile>
